<svg width="9.000000" height="13.500000" viewBox="0 0 9 13.5" fill="none" xmlns="http://www.w3.org/2000/svg" xmlns:xlink="http://www.w3.org/1999/xlink">
	<desc>
			Created with Pixso.
	</desc>
	<defs/>
	<path id="Vector" d="M6.3 2.53L6.3 8.85L2.7 8.85L2.7 2.53L6.3 2.53ZM7.65 0L1.35 0C0.6 0 0 0.56 0 1.26L0 12.23C0 12.93 0.6 13.5 1.35 13.5L7.65 13.5C8.39 13.5 9 12.93 9 12.23L9 1.26C9 0.56 8.39 0 7.65 0ZM1.35 12.65C1.1 12.65 0.9 12.46 0.9 12.23L0.9 1.26C0.9 1.03 1.1 0.84 1.35 0.84L7.65 0.84C7.89 0.84 8.1 1.03 8.1 1.26L8.1 12.23C8.1 12.46 7.89 12.65 7.65 12.65L1.35 12.65ZM6.86 1.68L2.13 1.68C1.95 1.68 1.8 1.82 1.8 2L1.8 9.38C1.8 9.56 1.95 9.7 2.13 9.7L6.86 9.7C7.04 9.7 7.2 9.56 7.2 9.38L7.2 2C7.2 1.82 7.04 1.68 6.86 1.68ZM5.51 10.96L3.48 10.96C3.3 10.96 3.15 11.11 3.15 11.28L3.15 11.49C3.15 11.67 3.3 11.81 3.48 11.81L5.51 11.81C5.69 11.81 5.85 11.67 5.85 11.49L5.85 11.28C5.85 11.11 5.69 10.96 5.51 10.96Z" fill="#FCFCFC" fill-opacity="1.000000" fill-rule="nonzero"/>
</svg>
