<svg width="12.000000" height="9.000000" viewBox="0 0 12 9" fill="none" xmlns="http://www.w3.org/2000/svg" xmlns:xlink="http://www.w3.org/1999/xlink">
	<desc>
			Created with Pixso.
	</desc>
	<defs/>
	<path id="Vector" d="M10.87 0L1.12 0C0.5 0 0 0.5 0 1.12L0 7.87C0 8.49 0.5 9 1.12 9L10.87 9C11.49 9 12 8.49 12 7.87L12 1.12C12 0.5 11.49 0 10.87 0ZM1.12 0.75L10.87 0.75C11.08 0.75 11.25 0.91 11.25 1.12L11.25 2.09C10.73 2.52 10 3.12 7.72 4.93C7.32 5.25 6.54 6 6 6C5.45 6 4.67 5.25 4.27 4.93C1.99 3.12 1.26 2.52 0.75 2.09L0.75 1.12C0.75 0.91 0.91 0.75 1.12 0.75ZM10.87 8.25L1.12 8.25C0.91 8.25 0.75 8.08 0.75 7.87L0.75 3.07C1.28 3.5 2.12 4.18 3.81 5.52C4.29 5.9 5.14 6.75 6 6.75C6.85 6.75 7.69 5.91 8.18 5.52C9.87 4.18 10.71 3.5 11.25 3.07L11.25 7.87C11.25 8.08 11.08 8.25 10.87 8.25Z" fill="#FCFCFC" fill-opacity="1.000000" fill-rule="nonzero"/>
</svg>
