<svg width="18.000000" height="28.800049" viewBox="0 0 18 28.8" fill="none" xmlns="http://www.w3.org/2000/svg" xmlns:xlink="http://www.w3.org/1999/xlink">
	<desc>
			Created with Pixso.
	</desc>
	<defs/>
	<path id="Vector" d="M12.6 5.39L12.6 18.89L5.4 18.89L5.4 5.39L12.6 5.39ZM15.3 0L2.7 0C1.2 0 0 1.2 0 2.69L0 26.1C0 27.59 1.2 28.8 2.7 28.8L15.3 28.8C16.79 28.8 18 27.59 18 26.1L18 2.69C18 1.2 16.79 0 15.3 0ZM2.7 27C2.2 27 1.8 26.59 1.8 26.1L1.8 2.69C1.8 2.2 2.2 1.8 2.7 1.8L15.3 1.8C15.79 1.8 16.2 2.2 16.2 2.69L16.2 26.1C16.2 26.59 15.79 27 15.3 27L2.7 27ZM13.72 3.6L4.27 3.6C3.9 3.6 3.6 3.9 3.6 4.27L3.6 20.02C3.6 20.39 3.9 20.7 4.27 20.7L13.72 20.7C14.09 20.7 14.4 20.39 14.4 20.02L14.4 4.27C14.4 3.9 14.09 3.6 13.72 3.6ZM11.02 23.39L6.97 23.39C6.6 23.39 6.3 23.7 6.3 24.07L6.3 24.52C6.3 24.89 6.6 25.2 6.97 25.2L11.02 25.2C11.39 25.2 11.7 24.89 11.7 24.52L11.7 24.07C11.7 23.7 11.39 23.39 11.02 23.39Z" fill="#FCFCFC" fill-opacity="1.000000" fill-rule="nonzero"/>
</svg>
