<svg width="46.000000" height="21.000000" viewBox="0 0 46 21" fill="none" xmlns="http://www.w3.org/2000/svg" xmlns:xlink="http://www.w3.org/1999/xlink">
	<desc>
			Created with Pixso.
	</desc>
	<defs/>
	<mask id="mask_5771_140" fill="white">
		<path id="Union" d="M10.5 21C4.70102 21 0 16.2991 0 10.5C0 4.70093 4.70102 0 10.5 0C10.6676 0 10.8343 0.00390625 11 0.0117188L11 0L36 0L36 0.0117188C41.5668 0.272705 46 4.86865 46 10.5C46 16.1313 41.5668 20.7273 36 20.9883L36 21L11 21L11 20.9883C10.8343 20.9961 10.6676 21 10.5 21Z" clip-rule="evenodd" fill="" fill-opacity="1.000000" fill-rule="evenodd"/>
	</mask>
	<path id="Union" d="M10.5 21C4.70102 21 0 16.2991 0 10.5C0 4.70093 4.70102 0 10.5 0C10.6676 0 10.8343 0.00390625 11 0.0117188L11 0L36 0L36 0.0117188C41.5668 0.272705 46 4.86865 46 10.5C46 16.1313 41.5668 20.7273 36 20.9883L36 21L11 21L11 20.9883C10.8343 20.9961 10.6676 21 10.5 21Z" clip-rule="evenodd" fill="#C4C4C4" fill-opacity="0.000000" fill-rule="evenodd" mask="url(#mask_5771_140)"/>
	<path id="Union" d="M11 20.9883C10.8343 20.9961 10.6676 21 10.5 21C10.3324 21 10.1657 20.9961 10 20.9883C4.43319 20.7273 0 16.1315 0 10.5C0 4.86854 4.43319 0.272667 10 0.0116949C10.1657 0.00392731 10.3324 0 10.5 0C10.6676 0 10.8343 0.00390625 11 0.0117188L11 0L36 0L36 0.0117188C41.5668 0.272705 46 4.86865 46 10.5C46 16.1313 41.5668 20.7273 36 20.9883L36 21L11 21L11 20.9883ZM12 20L12 19.9404L10.9532 19.9895Q10.7271 20 10.5 20Q8.53249 20 6.85311 19.3044Q5.17372 18.6088 3.78247 17.2175Q2.3913 15.8264 1.69568 14.1471Q1 12.4676 1 10.5Q1 8.53238 1.69568 6.85294Q2.3913 5.17364 3.78247 3.78247Q5.17372 2.39123 6.85311 1.69562Q8.53249 1 10.5 1Q10.7271 1 10.9532 1.0105L12 1.05957L12 1L35.7292 1L35.9532 1.0105Q37.8271 1.09837 39.417 1.8156Q41.0387 2.54712 42.365 3.93335Q43.6804 5.30794 44.3391 6.94651Q45 8.59041 45 10.5Q45 12.4096 44.3391 14.0535Q43.6804 15.6921 42.365 17.0667Q41.0387 18.4529 39.417 19.1844Q37.8271 19.9016 35.9532 19.9895L35.7292 20L12 20Z" clip-rule="evenodd" fill="#FFFFFF" fill-opacity="0.500000" fill-rule="evenodd"/>
	<path id="Arrow 2" d="M35.79 9.5L33.81 7.52C33.62 7.32 33.62 7.01 33.81 6.81C34.01 6.62 34.32 6.62 34.52 6.81L37.35 9.64C37.55 9.84 37.55 10.15 37.35 10.35L34.52 13.18C34.32 13.37 34.01 13.37 33.81 13.18C33.62 12.98 33.62 12.67 33.81 12.47L35.79 10.5L10 10.5L10 9.5L35.79 9.5Z" fill="#FCFCFC" fill-opacity="1.000000" fill-rule="evenodd"/>
</svg>
