<svg width="18.000000" height="14.282410" viewBox="0 0 18 14.2824" fill="none" xmlns="http://www.w3.org/2000/svg" xmlns:xlink="http://www.w3.org/1999/xlink">
	<desc>
			Created with Pixso.
	</desc>
	<defs/>
	<g opacity="0.900000">
		<path id="Vector" d="M2.13 2.91C2.15 2.69 2.06 2.47 1.9 2.32L0.22 0.3L0.22 0L5.44 0L9.47 8.84L13.02 0L18 0L18 0.3L16.56 1.67C16.44 1.77 16.37 1.92 16.4 2.08L16.4 12.2C16.37 12.35 16.44 12.51 16.56 12.6L17.96 13.98L17.96 14.28L10.9 14.28L10.9 13.98L12.36 12.57C12.5 12.42 12.5 12.38 12.5 12.16L12.5 3.98L8.45 14.25L7.91 14.25L3.2 3.98L3.2 10.87C3.16 11.16 3.26 11.45 3.46 11.65L5.35 13.95L5.35 14.25L0 14.25L0 13.95L1.89 11.65C2.09 11.45 2.18 11.15 2.13 10.87L2.13 2.91Z" fill="#FCFCFC" fill-opacity="1.000000" fill-rule="nonzero"/>
	</g>
</svg>
