<svg width="18.000000" height="14.619324" viewBox="0 0 18 14.6193" fill="none" xmlns="http://www.w3.org/2000/svg" xmlns:xlink="http://www.w3.org/1999/xlink">
	<desc>
			Created with Pixso.
	</desc>
	<defs/>
	<g opacity="0.900000">
		<path id="Vector" d="M16.14 3.64C16.16 3.8 16.16 3.96 16.16 4.12C16.16 9 12.44 14.61 5.66 14.61C3.57 14.61 1.63 14.01 0 12.96C0.29 12.99 0.58 13 0.89 13C2.61 13 4.2 12.42 5.47 11.43C3.84 11.39 2.48 10.33 2.02 8.87C2.25 8.9 2.47 8.93 2.71 8.93C3.04 8.93 3.38 8.88 3.68 8.8C1.99 8.46 0.73 6.97 0.73 5.18L0.73 5.13C1.22 5.41 1.79 5.58 2.39 5.6C1.4 4.94 0.75 3.81 0.75 2.53C0.75 1.85 0.93 1.22 1.25 0.67C3.07 2.91 5.8 4.37 8.86 4.53C8.8 4.26 8.77 3.97 8.77 3.68C8.77 1.65 10.41 0 12.46 0C13.52 0 14.48 0.44 15.15 1.16C15.98 1 16.78 0.69 17.49 0.27C17.22 1.13 16.64 1.85 15.87 2.3C16.61 2.22 17.33 2.02 18 1.73C17.49 2.46 16.86 3.11 16.14 3.64Z" fill="#FCFCFC" fill-opacity="1.000000" fill-rule="nonzero"/>
	</g>
</svg>
