<svg width="18.000000" height="18.000000" viewBox="0 0 18 18" fill="none" xmlns="http://www.w3.org/2000/svg" xmlns:xlink="http://www.w3.org/1999/xlink">
	<desc>
			Created with Pixso.
	</desc>
	<defs/>
	<g opacity="0.900000">
		<path id="Vector" d="M18 0.99L18 17C18 17.55 17.55 17.99 17 17.99L12.41 17.99L12.41 11.02L14.75 11.02L15.1 8.31L12.41 8.31L12.41 6.57C12.41 5.78 12.63 5.25 13.76 5.25L15.19 5.25L15.19 2.82C14.95 2.79 14.09 2.71 13.1 2.71C11.02 2.71 9.6 3.98 9.6 6.3L9.6 8.31L7.26 8.31L7.26 11.02L9.6 11.02L9.6 18L0.99 18C0.44 18 0 17.55 0 17L0 0.99C0 0.44 0.44 0 0.99 0L17 0C17.55 0 18 0.44 18 0.99Z" fill="#FCFCFC" fill-opacity="1.000000" fill-rule="nonzero"/>
	</g>
</svg>
