<svg width="25.600037" height="18.000000" viewBox="0 0 25.6 18" fill="none" xmlns="http://www.w3.org/2000/svg" xmlns:xlink="http://www.w3.org/1999/xlink">
	<desc>
			Created with Pixso.
	</desc>
	<defs/>
	<g opacity="0.900000">
		<path id="Vector" d="M25.06 2.81C24.77 1.7 23.9 0.83 22.8 0.53C20.8 0 12.8 0 12.8 0C12.8 0 4.79 0 2.79 0.53C1.69 0.83 0.82 1.7 0.53 2.81C0 4.82 0 9.01 0 9.01C0 9.01 0 13.21 0.53 15.22C0.82 16.32 1.69 17.16 2.79 17.46C4.79 18 12.8 18 12.8 18C12.8 18 20.8 18 22.8 17.46C23.9 17.16 24.77 16.32 25.06 15.22C25.6 13.21 25.6 9.01 25.6 9.01C25.6 9.01 25.6 4.82 25.06 2.81ZM10.18 12.82L10.18 5.21L16.87 9.01L10.18 12.82Z" fill="#FCFCFC" fill-opacity="1.000000" fill-rule="nonzero"/>
	</g>
</svg>
