<svg width="18.000000" height="17.995972" viewBox="0 0 18 17.996" fill="none" xmlns="http://www.w3.org/2000/svg" xmlns:xlink="http://www.w3.org/1999/xlink">
	<desc>
			Created with Pixso.
	</desc>
	<defs/>
	<g opacity="0.900000">
		<path id="Vector" d="M9 4.38C6.44 4.38 4.38 6.44 4.38 8.99C4.38 11.55 6.44 13.61 9 13.61C11.55 13.61 13.61 11.55 13.61 8.99C13.61 6.44 11.55 4.38 9 4.38ZM9 11.99C7.35 11.99 6 10.65 6 8.99C6 7.34 7.34 5.99 9 5.99C10.65 5.99 12 7.34 12 8.99C12 10.65 10.65 11.99 9 11.99ZM14.88 4.19C14.88 4.79 14.39 5.27 13.8 5.27C13.2 5.27 12.72 4.78 12.72 4.19C12.72 3.6 13.21 3.11 13.8 3.11C14.39 3.11 14.88 3.6 14.88 4.19ZM17.93 5.28C17.86 3.84 17.53 2.56 16.48 1.51C15.43 0.46 14.15 0.13 12.71 0.06C11.22 -0.03 6.77 -0.03 5.28 0.06C3.84 0.13 2.57 0.46 1.51 1.51C0.46 2.56 0.13 3.84 0.06 5.28C-0.03 6.76 -0.03 11.22 0.06 12.7C0.13 14.15 0.46 15.42 1.51 16.47C2.57 17.53 3.84 17.86 5.28 17.93C6.77 18.01 11.22 18.01 12.71 17.93C14.15 17.86 15.43 17.53 16.48 16.47C17.53 15.42 17.86 14.15 17.93 12.7C18.02 11.22 18.02 6.77 17.93 5.28ZM16.01 14.3C15.7 15.08 15.09 15.69 14.3 16.01C13.12 16.48 10.31 16.37 9 16.37C7.69 16.37 4.87 16.47 3.69 16.01C2.91 15.7 2.3 15.09 1.98 14.3C1.51 13.11 1.62 10.3 1.62 8.99C1.62 7.68 1.52 4.87 1.98 3.69C2.29 2.9 2.9 2.29 3.69 1.98C4.88 1.51 7.69 1.62 9 1.62C10.31 1.62 13.12 1.51 14.3 1.98C15.09 2.29 15.7 2.9 16.01 3.69C16.48 4.87 16.37 7.68 16.37 8.99C16.37 10.3 16.48 13.12 16.01 14.3Z" fill="#FCFCFC" fill-opacity="1.000000" fill-rule="nonzero"/>
	</g>
</svg>
