<svg xmlns="http://www.w3.org/2000/svg" width="12" height="9" fill="none"><path fill="#FCFCFC" d="M10.87 0H1.12C.5 0 0 .5 0 1.12v6.75C0 8.49.5 9 1.12 9h9.75C11.49 9 12 8.49 12 7.87V1.12C12 .5 11.49 0 10.87 0M1.12.75h9.75c.21 0 .38.16.38.37v.97c-.52.43-1.25 1.03-3.53 2.84C7.32 5.25 6.54 6 6 6c-.55 0-1.33-.75-1.73-1.07C1.99 3.12 1.26 2.52.75 2.09v-.97c0-.21.16-.37.37-.37m9.75 7.5H1.12c-.21 0-.37-.17-.37-.38v-4.8c.53.43 1.37 1.11 3.06 2.45.48.38 1.33 1.23 2.19 1.23.85 0 1.69-.84 2.18-1.23 1.69-1.34 2.53-2.02 3.07-2.45v4.8c0 .21-.17.38-.38.38"/></svg>