<svg xmlns="http://www.w3.org/2000/svg" width="9" height="13.5" fill="none"><path fill="#FCFCFC" d="M6.3 2.53v6.32H2.7V2.53zM7.65 0h-6.3C.6 0 0 .56 0 1.26v10.97c0 .7.6 1.27 1.35 1.27h6.3c.74 0 1.35-.57 1.35-1.27V1.26C9 .56 8.39 0 7.65 0m-6.3 12.65c-.25 0-.45-.19-.45-.42V1.26c0-.23.2-.42.45-.42h6.3c.24 0 .45.19.45.42v10.97c0 .23-.21.42-.45.42zM6.86 1.68H2.13c-.18 0-.33.14-.33.32v7.38c0 .18.15.32.33.32h4.73c.18 0 .34-.14.34-.32V2c0-.18-.16-.32-.34-.32m-1.35 9.28H3.48c-.18 0-.33.15-.33.32v.21c0 .18.15.32.33.32h2.03c.18 0 .34-.14.34-.32v-.21c0-.17-.16-.32-.34-.32"/></svg>