<svg xmlns="http://www.w3.org/2000/svg" width="18" height="28.8" fill="none"><path fill="#FCFCFC" d="M12.6 5.39v13.5H5.4V5.39zM15.3 0H2.7C1.2 0 0 1.2 0 2.69V26.1c0 1.49 1.2 2.7 2.7 2.7h12.6c1.49 0 2.7-1.21 2.7-2.7V2.69C18 1.2 16.79 0 15.3 0M2.7 27c-.5 0-.9-.41-.9-.9V2.69c0-.49.4-.89.9-.89h12.6c.49 0 .9.4.9.89V26.1c0 .49-.41.9-.9.9zM13.72 3.6H4.27c-.37 0-.67.3-.67.67v15.75c0 .37.3.68.67.68h9.45c.37 0 .68-.31.68-.68V4.27c0-.37-.31-.67-.68-.67m-2.7 19.79H6.97c-.37 0-.67.31-.67.68v.45c0 .37.3.68.67.68h4.05c.37 0 .68-.31.68-.68v-.45c0-.37-.31-.68-.68-.68"/></svg>