<svg xmlns="http://www.w3.org/2000/svg" width="57.244" height="52.102" fill="none"><path fill="#F4F4ED" fill-rule="evenodd" d="M4.5 9q-1.06 2.6-1.48 5.55-.11.85.04 1.65.32 1.71 1.86 3.2 2.25 2.11 6.25 3.17 1.97.56 3.17 1.47.43.31.67.73.42.73.24 1.8-.21 1.76-1.12 3.8-.92 1.97-2.74 4.36-1.76 2.32-4.57 4.99Q4 42.32 0 45.35l4.71 6.75q6.54-5.07 10.68-9.43 4.22-4.42 6.68-8.5 2.53-4.08 3.73-8.02 1.2-4.01 1.83-8.23.42-2.95.35-5.13 0-2.18-.35-3.72-.28-1.62-.85-2.68-.49-1.12-1.05-1.89-.41-.52-.88-.97-1.79-1.7-4.46-2.48Q17.01 0 13.71 0q-1.76 0-3.52 1.19Q8.5 2.32 7.03 4.35 5.55 6.32 4.5 9m29.25 0q-1.06 2.6-1.48 5.55-.11.85.04 1.65.32 1.71 1.86 3.2 2.25 2.11 6.25 3.17 1.97.56 3.17 1.47.43.31.67.73.42.73.24 1.8-.21 1.76-1.12 3.8-.92 1.97-2.74 4.36-1.83 2.32-4.64 4.99-2.82 2.6-6.83 5.63l4.79 6.75q6.54-5.07 10.68-9.43 4.22-4.42 6.68-8.5 2.53-4.08 3.73-8.02 1.2-4.01 1.83-8.23.42-2.95.35-5.13 0-2.18-.35-3.72-.28-1.62-.85-2.68-.49-1.12-1.05-1.89-.41-.52-.88-.97-1.79-1.7-4.46-2.48Q46.26 0 42.96 0q-1.76 0-3.52 1.19-1.69 1.13-3.16 3.16Q34.8 6.32 33.75 9" opacity=".25"/></svg>