<svg xmlns="http://www.w3.org/2000/svg" width="46" height="21" fill="none"><mask id="a" fill="#fff"><path fill-rule="evenodd" d="M10.5 21C4.701 21 0 16.3 0 10.5S4.701 0 10.5 0q.251 0 .5.012V0h25v.012c5.567.26 10 4.857 10 10.488s-4.433 10.227-10 10.488V21H11v-.012q-.249.012-.5.012" clip-rule="evenodd"/></mask><path d="M10.5 21C4.701 21 0 16.3 0 10.5S4.701 0 10.5 0q.251 0 .5.012V0h25v.012c5.567.26 10 4.857 10 10.488s-4.433 10.227-10 10.488V21H11v-.012q-.249.012-.5.012" clip-rule="evenodd" mask="url(#a)"/><path fill="#FFF" fill-opacity=".5" fill-rule="evenodd" d="M11 20.988a11 11 0 0 1-1 0C4.433 20.728 0 16.131 0 10.5S4.433.273 10 .012a11 11 0 0 1 1 0V0h25v.012c5.567.26 10 4.857 10 10.488s-4.433 10.227-10 10.488V21H11zM12 20v-.06l-1.047.05q-.226.01-.453.01-1.968 0-3.647-.696-1.68-.695-3.07-2.086-1.392-1.392-2.087-3.07Q1 12.467 1 10.5t.696-3.647 2.086-3.07Q5.174 2.39 6.853 1.695T10.5 1q.227 0 .453.01L12 1.06V1h23.73l.223.01q1.874.088 3.464.806 1.622.731 2.948 2.117 1.315 1.375 1.974 3.014Q45 8.59 45 10.5t-.66 3.553q-.66 1.64-1.975 3.014-1.326 1.386-2.948 2.117-1.59.718-3.464.805L35.73 20z" clip-rule="evenodd"/><path fill="#FCFCFC" fill-rule="evenodd" d="m35.79 9.5-1.98-1.98a.513.513 0 0 1 0-.71c.2-.19.51-.19.71 0l2.83 2.83c.2.2.2.51 0 .71l-2.83 2.83c-.2.19-.51.19-.71 0a.513.513 0 0 1 0-.71l1.98-1.97H10v-1z"/></svg>