<svg xmlns="http://www.w3.org/2000/svg" width="18" height="17.996" fill="none"><path fill="#FCFCFC" d="M9 4.38c-2.56 0-4.62 2.06-4.62 4.61A4.61 4.61 0 0 0 9 13.61c2.55 0 4.61-2.06 4.61-4.62 0-2.55-2.06-4.61-4.61-4.61m0 7.61c-1.65 0-3-1.34-3-3 0-1.65 1.34-3 3-3 1.65 0 3 1.35 3 3 0 1.66-1.35 3-3 3m5.88-7.8c0 .6-.49 1.08-1.08 1.08-.6 0-1.08-.49-1.08-1.08s.49-1.08 1.08-1.08 1.08.49 1.08 1.08m3.05 1.09c-.07-1.44-.4-2.72-1.45-3.77S14.15.13 12.71.06c-1.49-.09-5.94-.09-7.43 0-1.44.07-2.71.4-3.77 1.45C.46 2.56.13 3.84.06 5.28c-.09 1.48-.09 5.94 0 7.42.07 1.45.4 2.72 1.45 3.77 1.06 1.06 2.33 1.39 3.77 1.46 1.49.08 5.94.08 7.43 0 1.44-.07 2.72-.4 3.77-1.46 1.05-1.05 1.38-2.32 1.45-3.77.09-1.48.09-5.93 0-7.42m-1.92 9.02c-.31.78-.92 1.39-1.71 1.71-1.18.47-3.99.36-5.3.36s-4.13.1-5.31-.36c-.78-.31-1.39-.92-1.71-1.71-.47-1.19-.36-4-.36-5.31s-.1-4.12.36-5.3c.31-.79.92-1.4 1.71-1.71 1.19-.47 4-.36 5.31-.36s4.12-.11 5.3.36c.79.31 1.4.92 1.71 1.71.47 1.18.36 3.99.36 5.3s.11 4.13-.36 5.31" opacity=".9"/></svg>