<svg xmlns="http://www.w3.org/2000/svg" width="18" height="14.619" fill="none"><path fill="#FCFCFC" d="M16.14 3.64c.02.16.02.32.02.48 0 4.88-3.72 10.49-10.5 10.49-2.09 0-4.03-.6-5.66-1.65.29.03.58.04.89.04 1.72 0 3.31-.58 4.58-1.57-1.63-.04-2.99-1.1-3.45-2.56.23.03.45.06.69.06.33 0 .67-.05.97-.13A3.68 3.68 0 0 1 .73 5.18v-.05c.49.28 1.06.45 1.66.47A3.68 3.68 0 0 1 .75 2.53c0-.68.18-1.31.5-1.86 1.82 2.24 4.55 3.7 7.61 3.86-.06-.27-.09-.56-.09-.85C8.77 1.65 10.41 0 12.46 0c1.06 0 2.02.44 2.69 1.16.83-.16 1.63-.47 2.34-.89-.27.86-.85 1.58-1.62 2.03.74-.08 1.46-.28 2.13-.57-.51.73-1.14 1.38-1.86 1.91" opacity=".9"/></svg>